<?xml version="1.0" standalone="no"?>
<!DOCTYPE svg PUBLIC "-//W3C//DTD SVG 20010904//EN"
 "http://www.w3.org/TR/2001/REC-SVG-20010904/DTD/svg10.dtd">
<svg version="1.0" xmlns="http://www.w3.org/2000/svg"
 width="150.000000pt" height="150.000000pt" viewBox="0 0 150.000000 150.000000"
 preserveAspectRatio="xMidYMid meet">
<metadata>
Created by potrace 1.10, written by Peter Selinger 2001-2011
</metadata>
<g transform="translate(0.000000,150.000000) scale(0.100000,-0.100000)"
fill="#000000" stroke="none">
<path d="M565 1476 c-177 -45 -340 -162 -440 -316 -75 -114 -121 -255 -113
-345 3 -39 4 -39 26 35 46 152 74 219 123 293 93 143 229 241 399 290 47 14
101 32 120 40 l35 15 -50 0 c-27 0 -72 -5 -100 -12z"/>
<path d="M830 1471 c30 -11 82 -27 115 -37 178 -53 347 -183 417 -322 12 -26
28 -50 34 -54 6 -4 19 -35 28 -70 10 -35 22 -72 27 -83 4 -11 15 -42 23 -70
l16 -50 -4 70 c-8 137 -92 309 -207 424 -118 117 -288 199 -429 207 l-75 4 55
-19z"/>
<path d="M488 1193 c-10 -2 -18 -9 -18 -14 0 -6 -6 -9 -12 -8 -26 3 -38 -1
-35 -13 1 -7 -5 -11 -13 -10 -8 2 -12 0 -7 -4 4 -4 -1 -17 -12 -28 -20 -23
-44 -106 -30 -106 19 0 8 -29 -21 -57 -31 -29 -41 -75 -18 -89 7 -5 9 -2 4 7
-4 8 2 2 14 -13 12 -16 28 -28 36 -28 9 0 12 -4 9 -10 -3 -5 0 -10 8 -10 7 0
14 -7 14 -15 0 -8 -4 -12 -9 -8 -13 8 -7 -90 6 -99 7 -5 6 -8 -3 -8 -9 0 -4
-9 12 -24 14 -13 23 -27 19 -30 -3 -4 2 -4 12 0 11 4 21 2 27 -7 7 -11 9 -10
9 6 1 19 1 19 14 3 7 -10 18 -18 24 -18 6 0 16 8 21 18 10 16 10 16 11 0 0
-10 5 -18 11 -18 5 0 7 5 4 10 -3 6 -1 10 4 10 6 0 11 -4 11 -9 0 -14 34 -8
48 9 8 8 11 10 8 3 -7 -13 57 -38 77 -30 6 3 1 6 -13 8 -20 1 -18 3 10 8 19 4
41 3 48 -2 9 -7 17 -4 26 9 11 15 17 16 29 6 12 -10 16 -10 20 0 4 11 6 10 6
0 1 -7 6 -10 11 -7 6 3 10 1 10 -4 0 -6 5 -11 11 -11 5 0 7 5 3 12 -5 8 0 9
14 6 12 -4 20 -2 16 3 -3 5 4 9 16 9 12 0 19 -4 16 -8 -2 -4 6 -8 20 -8 13 0
24 4 24 9 0 5 7 4 15 -3 12 -10 15 -10 15 0 0 7 7 10 14 7 10 -4 13 -1 10 7
-3 8 -1 17 5 21 13 7 15 55 3 55 -5 0 -9 7 -9 15 0 8 6 15 12 15 15 0 67 76
64 93 -1 7 3 25 10 42 7 16 10 40 8 53 -3 15 3 29 19 41 29 22 29 29 7 53 -15
17 -15 20 -3 28 8 6 11 10 5 10 -5 0 4 12 20 26 17 14 24 22 16 18 -11 -5 -13
-1 -9 19 4 18 1 24 -9 20 -7 -3 -13 0 -13 6 0 16 -55 7 -75 -12 -9 -10 -20
-15 -24 -12 -5 2 -6 -7 -3 -22 3 -16 1 -24 -5 -20 -6 4 -14 -5 -18 -20 l-6
-27 -30 32 c-23 25 -35 30 -61 27 -17 -2 -35 -10 -39 -17 -5 -7 -9 -9 -9 -5 0
4 -11 -5 -24 -20 l-24 -28 -10 26 c-6 15 -17 29 -26 32 -10 4 -13 13 -9 24 4
12 -1 10 -15 -7 -12 -14 -21 -19 -22 -12 0 6 4 12 8 12 4 0 8 8 9 18 1 9 3 24
5 32 2 8 -3 14 -9 13 -7 -2 -13 1 -13 6 0 15 -28 21 -52 11 -22 -8 -21 -9 10
-16 40 -8 48 -20 29 -42 -29 -32 -115 -192 -103 -192 2 0 15 17 29 38 58 85
107 113 136 78 10 -12 7 -23 -14 -56 -14 -22 -30 -52 -35 -64 -24 -64 37 -24
85 54 48 80 101 110 133 78 24 -24 13 -60 -33 -105 -25 -24 -52 -43 -60 -43
-8 0 -15 -7 -15 -15 0 -33 60 -12 113 40 27 26 36 42 32 56 -4 12 -2 19 7 19
7 0 30 27 50 60 41 66 60 79 84 59 15 -12 14 -15 -3 -29 -20 -17 -63 -74 -63
-85 0 -4 7 -5 15 -1 21 8 45 -3 45 -20 0 -10 -7 -13 -24 -8 -22 5 -23 3 -28
-63 -6 -76 -38 -152 -69 -160 -10 -3 -19 -9 -19 -14 0 -5 -9 -9 -21 -9 -15 0
-19 5 -15 15 3 8 1 15 -4 15 -6 0 -10 -22 -10 -50 0 -30 4 -50 11 -50 7 0 9
10 5 25 -5 21 -3 25 16 25 20 0 23 -5 22 -37 -1 -37 -2 -38 -40 -38 l-39 0 0
70 c0 64 2 70 22 73 18 3 22 9 20 35 0 18 3 43 7 56 l9 25 -32 -27 c-18 -15
-44 -30 -58 -33 -31 -8 -73 11 -80 36 -5 19 -7 19 -35 -5 -37 -31 -53 -31 -74
0 -14 22 -15 30 -3 58 7 17 21 44 31 60 11 15 15 27 9 27 -16 0 -80 -81 -104
-132 -24 -52 -40 -59 -58 -27 -14 27 14 105 77 215 24 43 44 79 44 80 0 9 -40
-2 -40 -11 0 -5 -6 -3 -13 6 -24 31 -111 47 -169 32z m131 -50 c26 -32 20 -58
-20 -95 -29 -28 -72 -37 -84 -18 -4 6 -11 8 -16 5 -5 -4 -9 -1 -9 5 0 7 8 9
21 5 15 -5 29 2 55 30 41 43 39 61 -4 59 -35 -2 -77 -32 -104 -72 -29 -44 -23
-59 40 -89 66 -32 76 -56 39 -98 -50 -58 -197 -36 -197 29 0 34 18 42 41 17
24 -26 96 -48 116 -35 25 16 18 28 -40 62 -37 21 -59 41 -63 57 -19 78 66 164
163 165 33 0 46 -5 62 -27z m286 -419 l0 -69 -35 0 -35 0 -3 65 c-3 72 11 95
51 81 20 -7 22 -16 22 -77z m-431 52 c-3 -13 -1 -27 5 -30 7 -5 11 4 11 23 0
23 5 31 18 31 15 0 17 -11 18 -75 1 -67 -1 -75 -17 -75 -15 0 -19 8 -19 35 0
19 -5 35 -11 35 -6 0 -9 -14 -7 -32 2 -27 0 -33 -17 -33 -18 0 -20 7 -20 72 0
69 1 73 23 73 19 0 21 -4 16 -24z m141 -51 l0 -70 -35 0 -35 0 -3 73 -3 73 38
-3 38 -3 0 -70z m103 6 c3 -71 -3 -81 -55 -81 l-33 0 0 76 0 75 43 -3 42 -3 3
-64z m96 53 c10 -27 6 -110 -6 -122 -7 -7 -27 -12 -45 -12 l-33 0 0 75 0 75
39 0 c26 0 41 -5 45 -16z"/>
<path d="M860 730 c0 -27 5 -50 10 -50 6 0 10 23 10 50 0 28 -4 50 -10 50 -5
0 -10 -22 -10 -50z"/>
<path d="M570 730 c0 -27 5 -50 10 -50 6 0 10 23 10 50 0 28 -4 50 -10 50 -5
0 -10 -22 -10 -50z"/>
<path d="M670 731 c0 -30 3 -52 6 -49 10 10 12 75 3 89 -6 9 -9 -5 -9 -40z"/>
<path d="M769 768 c-4 -63 -3 -81 3 -85 5 -2 8 19 8 46 0 28 -2 51 -5 51 -3 0
-5 -6 -6 -12z"/>
<path d="M927 1026 c-28 -26 -62 -86 -49 -86 16 0 93 90 87 100 -8 13 -8 13
-38 -14z"/>
<path d="M1059 963 c-20 -49 -39 -116 -39 -135 0 -34 18 -18 34 30 29 91 33
175 5 105z"/>
<path d="M10 675 c0 -143 87 -330 211 -454 113 -113 285 -197 424 -208 91 -7
77 7 -35 36 -168 44 -306 128 -405 248 -68 82 -114 176 -150 303 -35 123 -44
138 -45 75z"/>
<path d="M1469 658 c-6 -29 -15 -60 -20 -68 -4 -8 -13 -35 -19 -60 -15 -56
-68 -152 -127 -230 -79 -105 -236 -205 -378 -241 -39 -9 -87 -25 -106 -33
l-34 -16 70 4 c137 9 309 92 424 207 112 112 197 284 208 421 3 38 3 68 0 68
-3 0 -11 -24 -18 -52z"/>
<path d="M577 603 c-12 -3 -16 -10 -12 -21 3 -9 3 -13 -1 -9 -11 10 -34 -13
-34 -34 0 -11 -3 -18 -7 -17 -5 0 -16 -2 -26 -7 -14 -6 -15 -10 -6 -21 9 -11
8 -14 -1 -14 -9 0 -9 -4 -3 -12 11 -14 14 -80 3 -73 -4 2 -7 -2 -7 -10 0 -8 4
-12 9 -9 4 3 8 -3 8 -13 0 -24 19 -43 43 -43 10 0 21 -9 24 -19 3 -12 11 -17
19 -14 8 3 24 -3 34 -12 11 -10 23 -16 26 -12 3 3 14 -3 25 -14 10 -10 28 -19
40 -19 11 0 18 -4 14 -9 -3 -6 8 -8 25 -6 19 3 30 0 30 -8 0 -7 19 -13 48 -15
26 -2 48 -7 50 -11 3 -10 110 -2 145 11 28 11 67 68 47 68 -5 0 -10 6 -10 14
0 7 -9 25 -21 40 -11 14 -19 34 -17 45 4 28 -35 76 -102 125 -33 24 -56 46
-53 49 3 3 -3 6 -13 5 -22 -1 -116 33 -125 45 -3 4 -33 8 -66 10 -34 1 -59 5
-56 10 4 7 -1 8 -30 0z m209 -73 c85 -34 137 -67 129 -81 -4 -5 0 -6 7 -4 8 3
28 -10 47 -29 24 -25 32 -41 29 -62 -2 -21 5 -37 25 -57 33 -34 34 -48 6 -73
-32 -29 -183 -27 -262 4 -32 12 -63 20 -68 16 -5 -3 -8 -1 -7 5 2 5 -35 32
-81 59 -80 46 -112 74 -100 87 4 3 21 -8 39 -25 72 -67 231 -140 318 -146 l52
-3 0 33 c0 29 -4 34 -27 39 -37 7 -42 0 -9 -12 35 -14 33 -18 -11 -30 -44 -12
-54 -7 -27 15 18 15 18 15 -3 5 -28 -14 -73 -14 -73 -1 0 6 -9 10 -20 10 -34
0 -92 28 -84 41 4 7 0 9 -12 6 -26 -8 -104 51 -130 97 -25 45 -22 69 12 85 13
6 24 17 24 24 0 48 103 47 226 -3z"/>
<path d="M586 521 c-4 -5 0 -12 6 -14 7 -3 3 -6 -9 -6 -13 -1 -23 -5 -23 -11
0 -5 -8 -7 -17 -3 -10 3 -15 3 -11 -2 4 -4 3 -14 -3 -21 -16 -19 16 -31 36
-14 13 10 19 10 33 -4 10 -9 23 -16 29 -16 6 0 13 -5 15 -12 3 -7 10 -8 17 -3
11 6 8 11 -10 22 -24 14 -24 14 -2 10 13 -3 26 -1 29 5 10 15 0 18 -32 9 -17
-4 -38 -4 -51 2 -38 17 -26 32 24 30 7 -1 10 3 7 8 -3 5 2 6 10 3 9 -3 13 -10
10 -15 -3 -5 0 -9 5 -9 6 0 11 5 11 10 0 17 20 11 28 -7 4 -10 16 -18 27 -18
11 0 19 -6 18 -12 -3 -14 4 -16 58 -13 22 1 41 -5 48 -14 15 -18 51 -22 51 -6
0 6 -6 10 -12 8 -7 -1 -23 3 -35 10 -40 22 -75 33 -67 21 4 -7 1 -10 -7 -7 -8
3 -13 10 -12 16 3 11 -120 62 -149 62 -9 0 -19 -4 -22 -9z"/>
<path d="M564 438 c-4 -7 -1 -14 6 -16 8 -3 23 -14 35 -26 24 -24 80 -33 99
-17 10 8 18 7 33 -6 10 -10 13 -14 6 -9 -17 11 -67 -10 -58 -24 7 -12 26 -14
24 -2 -4 21 6 20 61 -8 47 -24 68 -29 95 -24 31 5 33 8 24 31 -13 34 -11 41 6
19 8 -11 15 -28 15 -38 0 -10 4 -18 10 -18 5 0 7 6 4 13 -3 8 2 20 11 27 18
15 31 7 19 -12 -5 -7 -10 -28 -11 -46 -2 -27 1 -31 11 -23 8 6 20 9 29 5 8 -3
18 0 23 7 5 9 2 11 -8 6 -20 -7 -31 3 -19 17 13 16 -13 66 -47 90 -15 11 -21
13 -14 6 13 -15 16 -40 4 -40 -4 0 -12 10 -17 23 -6 12 -21 23 -35 25 -14 2
-33 11 -42 19 -12 11 -21 12 -35 4 -14 -8 -15 -11 -3 -12 8 -1 21 -1 29 0 7 2
10 -3 6 -9 -3 -6 -3 -10 2 -9 29 5 63 -2 57 -12 -4 -7 -21 -9 -40 -6 -19 3
-36 1 -39 -4 -10 -16 -25 -10 -19 9 4 12 3 13 -3 4 -7 -10 -19 -7 -54 11 -37
20 -47 22 -57 11 -15 -16 -32 -18 -32 -4 0 6 -7 10 -15 10 -8 0 -15 3 -15 8 0
4 -9 13 -20 19 -14 10 -21 10 -26 1z m305 -84 c8 -7 -30 -16 -44 -10 -27 10
-17 27 13 20 15 -4 29 -8 31 -10z"/>
<path d="M691 436 c8 -8 25 -17 39 -21 25 -7 25 -7 5 12 -11 10 -28 20 -39 21
-16 1 -17 -1 -5 -12z"/>
</g>
</svg>
